<svg xmlns="http://www.w3.org/2000/svg" viewBox="0 0 676 512" width="676" height="512">
  <defs>
    <ellipse id="notehead" rx="31" ry="24"/>
    <path id="wave" d="M 1 261.5 C 1.7 261.4, 3.7 261.2, 5 261.0 C 6.3 260.8, 7.7 260.6, 9 260.5 C 10.3 260.4, 11.7 260.6, 13 260.5 C 14.3 260.4, 15.7 260.2, 17 260.0 C 18.3 259.8, 19.7 259.7, 21 259.5 C 22.3 259.3, 23.7 259.2, 25 259.0 C 26.3 258.8, 27.7 258.3, 29 258.0 C 30.3 257.7, 31.7 257.5, 33 257.0 C 34.3 256.5, 35.7 255.7, 37 255.0 C 38.3 254.3, 39.7 253.8, 41 253.0 C 42.3 252.2, 43.7 251.4, 45 250.5 C 46.3 249.6, 47.7 248.8, 49 247.5 C 50.3 246.2, 51.7 244.5, 53 243.0 C 54.3 241.5, 55.7 240.1, 57 238.5 C 58.3 236.9, 59.7 235.1, 61 233.5 C 62.3 231.9, 63.7 230.5, 65 229.0 C 66.3 227.5, 67.7 225.8, 69 224.5 C 70.3 223.2, 71.7 222.1, 73 221.5 C 74.3 220.9, 75.7 220.5, 77 221.0 C 78.3 221.5, 79.7 222.8, 81 224.5 C 82.3 226.2, 83.7 228.8, 85 231.5 C 86.3 234.2, 87.7 237.2, 89 240.5 C 90.3 243.8, 91.7 247.7, 93 251.5 C 94.3 255.3, 95.7 259.5, 97 263.5 C 98.3 267.5, 99.7 271.8, 101 275.5 C 102.3 279.2, 103.7 282.8, 105 286.0 C 106.3 289.2, 107.7 292.0, 109 294.5 C 110.3 297.0, 111.7 299.2, 113 301.0 C 114.3 302.8, 115.7 303.8, 117 305.0 C 118.3 306.2, 119.7 307.5, 121 308.0 C 122.3 308.5, 123.7 308.3, 125 308.0 C 126.3 307.7, 127.7 307.1, 129 306.0 C 130.3 304.9, 131.7 303.3, 133 301.5 C 134.3 299.7, 135.7 297.6, 137 295.0 C 138.3 292.4, 139.7 289.3, 141 286.0 C 142.3 282.7, 143.7 279.1, 145 275.0 C 146.3 270.9, 147.7 266.6, 149 261.5 C 150.3 256.4, 151.7 250.4, 153 244.5 C 154.3 238.6, 155.7 232.3, 157 226.0 C 158.3 219.7, 159.7 212.5, 161 206.5 C 162.3 200.5, 163.7 195.0, 165 190.0 C 166.3 185.0, 167.7 179.9, 169 176.5 C 170.3 173.1, 171.7 169.3, 173 169.5 C 174.3 169.7, 175.7 173.8, 177 177.5 C 178.3 181.2, 179.7 185.6, 181 192.0 C 182.3 198.4, 183.7 206.0, 185 216.0 C 186.3 226.0, 187.7 240.1, 189 252.0 C 190.3 263.9, 191.7 275.2, 193 287.5 C 194.3 299.8, 195.7 313.5, 197 325.5 C 198.3 337.5, 199.7 350.2, 201 359.5 C 202.3 368.8, 203.7 375.3, 205 381.5 C 206.3 387.7, 207.7 393.3, 209 396.5 C 210.3 399.7, 211.7 401.9, 213 400.5 C 214.3 399.1, 215.7 393.7, 217 388.0 C 218.3 382.3, 219.7 376.2, 221 366.5 C 222.3 356.8, 223.7 344.1, 225 330.0 C 226.3 315.9, 227.7 298.2, 229 282.0 C 230.3 265.8, 231.7 248.9, 233 233.0 C 234.3 217.1, 235.7 200.5, 237 186.5 C 238.3 172.5, 239.7 158.7, 241 149.0 C 242.3 139.3, 243.7 133.2, 245 128.5 C 246.3 123.8, 247.7 119.9, 249 120.5 C 250.3 121.1, 251.7 126.8, 253 132.0 C 254.3 137.2, 255.7 143.6, 257 151.5 C 258.3 159.4, 259.7 169.2, 261 179.5 C 262.3 189.8, 263.7 201.7, 265 213.5 C 266.3 225.3, 267.7 238.8, 269 250.5 C 270.3 262.2, 271.7 273.7, 273 284.0 C 274.3 294.3, 275.7 304.5, 277 312.5 C 278.3 320.5, 279.7 326.7, 281 332.0 C 282.3 337.3, 283.7 341.9, 285 344.5 C 286.3 347.1, 287.7 348.4, 289 347.5 C 290.3 346.6, 291.7 342.2, 293 339.0 C 294.3 335.8, 295.7 332.5, 297 328.5 C 298.3 324.5, 299.7 319.8, 301 315.0 C 302.3 310.2, 303.7 304.8, 305 300.0 C 306.3 295.2, 307.7 290.7, 309 286.0 C 310.3 281.3, 311.7 276.4, 313 272.0 C 314.3 267.6, 315.7 263.5, 317 259.5 C 318.3 255.5, 319.7 251.5, 321 248.0 C 322.3 244.5, 323.7 241.4, 325 238.5 C 326.3 235.6, 327.7 232.8, 329 230.5 C 330.3 228.2, 331.7 226.2, 333 224.5 C 334.3 222.8, 335.7 221.5, 337 220.5 C 338.3 219.5, 339.7 218.8, 341 218.5 C 342.3 218.2, 343.7 218.1, 345 218.5 C 346.3 218.9, 347.7 219.9, 349 221.0 C 350.3 222.1, 351.7 223.6, 353 225.0 C 354.3 226.4, 355.7 227.8, 357 229.5 C 358.3 231.2, 359.7 233.2, 361 235.0 C 362.3 236.8, 363.7 238.3, 365 240.0 C 366.3 241.7, 367.7 243.5, 369 245.0 C 370.3 246.5, 371.7 247.8, 373 249.0 C 374.3 250.2, 375.7 251.6, 377 252.5 C 378.3 253.4, 379.7 253.9, 381 254.5 C 382.3 255.1, 383.7 255.4, 385 256.0 C 386.3 256.6, 387.7 257.5, 389 258.0 C 390.3 258.5, 391.7 258.7, 393 259.0 C 394.3 259.3, 395.7 259.8, 397 260.0 C 398.3 260.2, 399.7 260.3, 401 260.5 C 402.3 260.7, 403.7 260.8, 405 261.0 C 406.3 261.2, 407.7 261.3, 409 261.5 C 410.3 261.7, 411.7 261.9, 413 262.0 C 414.3 262.1, 416.0 262.0, 417 262.0 C 418.0 262.0, 418.7 262.0, 419 262.0"/>
    <g id="stems">
      <line x1="429.1" y1="203" x2="429.1" y2="378"/>
      <line x1="510.1" y1="169" x2="510.1" y2="318"/>
      <line x1="584.1" y1="151" x2="584.1" y2="288"/>
      <line x1="651.1" y1="132" x2="651.1" y2="258"/>
    </g>
    <g id="noteFills">
      <path d="M505.1 149.2 L656.1 108 L656.1 152 L505.1 193.1 Z"/>
      <path d="M427.3 199
        C438.3 212, 452.3 228, 463.3 243
        C469.3 252, 471.8 263, 471.3 274
        C470.8 283, 466.3 291, 459.6 295.7
        C460.8 288, 462.3 276, 460.3 264.5
        C457.8 255, 448.3 246, 434.3 240 Z"/>
      <use href="#notehead" transform="translate(404 382.5) rotate(-22)"/>
      <use href="#notehead" transform="translate(485 322.5) rotate(-22)"/>
      <use href="#notehead" transform="translate(559 292.5) rotate(-22)"/>
      <use href="#notehead" transform="translate(626 262.5) rotate(-22)"/>
    </g>
    <!-- knockouts: shapes re-stroked fatter in black erase what's beneath, leaving a clearance halo -->
    <mask id="noteClearance" maskUnits="userSpaceOnUse" x="-50" y="-50" width="800" height="650">
      <rect x="-50" y="-50" width="800" height="650" fill="white"/>
      <use href="#stems" stroke="black" stroke-width="34" fill="none" stroke-linecap="round"/>
      <use href="#noteFills" fill="black" stroke="black" stroke-width="24"/>
    </mask>
    <mask id="waveClearance" maskUnits="userSpaceOnUse" x="-50" y="-50" width="800" height="650">
      <rect x="-50" y="-50" width="800" height="650" fill="white"/>
      <use href="#wave" stroke="black" stroke-width="33.5" fill="none" stroke-linecap="square"/>
    </mask>
  </defs>
  <g transform="translate(27 20.5) scale(0.92)">
    <!-- notes knock out both white elements; the wave additionally knocks out the staff -->
    <g mask="url(#noteClearance)" stroke="#ffffff" stroke-width="9.5" fill="none">
      <use href="#wave" stroke-linecap="square"/>
      <path mask="url(#waveClearance)" d="M347 142.5H690 M362 202.5H690 M443 262.5H690 M347 322.5H690 M347 382.5H690"/>
    </g>
    <use href="#stems" stroke="#ff5b7a" stroke-width="10" fill="none" stroke-linecap="round"/>
    <use href="#noteFills" fill="#ff5b7a"/>
  </g>
</svg>
